<svg width="128" height="126" viewBox="0 0 128 126" fill="none" xmlns="http://www.w3.org/2000/svg">
<path d="M4.50098 121.016H123.356" stroke="#717171" stroke-width="8.91416" stroke-miterlimit="10" stroke-linecap="round" stroke-linejoin="round"/>
<path d="M10.1464 121.016L10.4435 49.5243C10.4435 45.8992 12.1669 42.4527 15.0194 40.1944L56.6192 7.80622C60.898 4.47827 66.8996 4.47827 71.2378 7.80622L112.838 40.1349C115.75 42.3932 117.414 45.8397 117.414 49.5243V121.016" stroke="#717171" stroke-width="8.91416" stroke-miterlimit="10" stroke-linejoin="round"/>
<path d="M69.8715 91.302H57.9859C53.0534 91.302 49.0718 95.2837 49.0718 100.216V121.016H78.7857V100.216C78.7857 95.2837 74.804 91.302 69.8715 91.302Z" stroke="#717171" stroke-width="8.91416" stroke-miterlimit="10" stroke-linejoin="round"/>
<path d="M49.0717 71.988H37.1862C33.9177 71.988 31.2434 69.3138 31.2434 66.0452V57.1311C31.2434 53.8626 33.9177 51.1883 37.1862 51.1883H49.0717C52.3403 51.1883 55.0145 53.8626 55.0145 57.1311V66.0452C55.0145 69.3138 52.3403 71.988 49.0717 71.988Z" stroke="#717171" stroke-width="8.91416" stroke-miterlimit="10" stroke-linejoin="round"/>
<path d="M90.6712 71.988H78.7857C75.5171 71.988 72.8429 69.3138 72.8429 66.0452V57.1311C72.8429 53.8626 75.5171 51.1883 78.7857 51.1883H90.6712C93.9397 51.1883 96.614 53.8626 96.614 57.1311V66.0452C96.614 69.3138 93.9397 71.988 90.6712 71.988Z" stroke="#717171" stroke-width="8.91416" stroke-miterlimit="10" stroke-linejoin="round"/>
<path d="M105.529 31.8743L105.35 14.046H79.202" stroke="#717171" stroke-width="8.91416" stroke-miterlimit="10" stroke-linecap="round" stroke-linejoin="round"/>
</svg>
